HIERARCHY
ROOT Hips
{
  OFFSET -86.2472 39.0038 -37.8923
  CHANNELS 6 Xposition Yposition Zposition Zrotation Xrotation Yrotation
  JOINT LeftHip
  {
    OFFSET 3.43 7.10543e-015 0
    CHANNELS 3 Zrotation Xrotation Yrotation
    JOINT LeftKnee
    {
      OFFSET -1.56319e-013 -18.47 -2.8777e-013
      CHANNELS 3 Zrotation Xrotation Yrotation
      JOINT LeftAnkle
      {
        OFFSET -1.77636e-012 -17.95 -1.87583e-012
        CHANNELS 3 Zrotation Xrotation Yrotation
        End Site
        {
          OFFSET 0 -3.12 0
        }
      }
    }
  }
  JOINT RightHip
  {
    OFFSET -3.43 7.10543e-015 7.10543e-015
    CHANNELS 3 Zrotation Xrotation Yrotation
    JOINT RightKnee
    {
      OFFSET -1.56319e-013 -18.47 -3.83693e-013
      CHANNELS 3 Zrotation Xrotation Yrotation
      JOINT RightAnkle
      {
        OFFSET -9.09495e-013 -17.95 2.359e-012
        CHANNELS 3 Zrotation Xrotation Yrotation
        End Site
        {
          OFFSET 0 -3.12 0
        }
      }
    }
  }
  JOINT Chest
  {
    OFFSET 1.98952e-013 4.57 -3.55271e-015
    CHANNELS 3 Zrotation Xrotation Yrotation
    JOINT Chest2
    {
      OFFSET 0 6.57 3.55271e-015
      CHANNELS 3 Zrotation Xrotation Yrotation
      JOINT LeftCollar
      {
        OFFSET 1.06 4.19 1.76
        CHANNELS 3 Zrotation Xrotation Yrotation
        JOINT LeftShoulder
        {
          OFFSET 5.81 7.10543e-015 -7.10543e-015
          CHANNELS 3 Zrotation Xrotation Yrotation
          JOINT LeftElbow
          {
            OFFSET -1.35003e-013 -12.08 -1.28608e-012
            CHANNELS 3 Zrotation Xrotation Yrotation
            JOINT LeftWrist
            {
              OFFSET -1.74865e-011 -9.82 -8.22808e-012
              CHANNELS 3 Zrotation Xrotation Yrotation
              End Site
              {
                OFFSET 0 -7.37 0
              }
            }
          }
        }
      }
      JOINT RightCollar
      {
        OFFSET -1.06 4.19 1.76
        CHANNELS 3 Zrotation Xrotation Yrotation
        JOINT RightShoulder
        {
          OFFSET -6.06 -1.42109e-014 1.77636e-014
          CHANNELS 3 Zrotation Xrotation Yrotation
          JOINT RightElbow
          {
            OFFSET -4.83169e-013 -11.08 -1.07825e-012
            CHANNELS 3 Zrotation Xrotation Yrotation
            JOINT RightWrist
            {
              OFFSET 6.38067e-012 -9.82 -1.4424e-011
              CHANNELS 3 Zrotation Xrotation Yrotation
              End Site
              {
                OFFSET 0 -7.14001 0
              }
            }
          }
        }
      }
      JOINT Neck
      {
        OFFSET -1.42109e-014 4.05 1.42109e-014
        CHANNELS 3 Zrotation Xrotation Yrotation
        JOINT Head
        {
          OFFSET 8.52651e-014 5.19 8.17124e-014
          CHANNELS 3 Zrotation Xrotation Yrotation
          End Site
          {
            OFFSET 0 4.14001 0
          }
        }
      }
    }
  }
}
MOTION
Frames:	17
Frame Time:	0.0333333
-86.2472 39.0038 -37.8923 3.48954 -6.63193 -1.36917 -9.3601 -2.86671 -8.77241 -0.933496 22.193 8.53185 3.33848 -13.4438 0.393585 -2.31761 -20.5796 -0.922585 -9.2666 64.5491 -1.35869 -4.86676 -5.29143 -0.225024 -2.40827 2.83035 -2.5621 -2.93157 4.30622 -3.44445 4.90021 -0.00169695 1.9485 16.8538 -11.6214 6.21232 -6.81137 -10.8546 -35.6206 6.75416 3.1392 -0.185289 -2.49273 0.190522 -4.34239 -18.7147 3.03832 -1.53473 9.98136 -14.8082 37.5846 -2.86611 -0.0330781 -0.000827507 1.89819 -5.69981 -1.1705 1.76508 -5.8789 -0.365023 
-86.3352 38.9708 -36.6804 2.64429 -6.64172 -0.227641 -8.34079 -1.26694 -8.36457 -0.441642 22.882 7.08422 3.17867 -15.1283 0.422208 -1.95383 -22.9189 -0.855818 -5.84524 57.0697 -7.3253 -4.63369 -6.05427 -0.245175 -1.81595 3.03086 -3.14297 -2.61425 4.52959 -4.09228 5.38773 0.00593435 1.75371 16.4925 -14.3543 5.86526 -6.65205 -11.8113 -34.6835 6.90258 2.94051 -0.177379 -2.65022 0.192968 -4.51414 -18.1388 4.05335 -1.41645 10.4331 -16.042 37.8593 -2.65659 0.0314365 0.000728927 2.09667 -5.62164 -1.15162 1.641 -5.77254 -0.10964 
-86.4306 38.8896 -35.4703 2.04426 -6.55626 0.899392 -7.4985 0.273833 -8.04943 0.0369663 23.4999 5.76624 3.00792 -16.8207 0.444826 -2.27962 -23.9461 -0.994757 -3.29222 46.3748 -11.9894 -3.7827 -5.29722 -0.175051 -1.3642 3.18152 -3.63856 -2.40597 4.67379 -4.61655 5.84664 0.0115723 1.56617 16.0304 -16.6168 5.48229 -6.54184 -13.205 -33.5806 7.04129 2.73328 -0.168195 -2.78129 0.193268 -4.76511 -17.5481 4.79818 -1.37232 10.6697 -16.7536 38.2613 -2.43803 0.0497409 0.00105844 2.27261 -5.5918 -1.17704 1.54003 -5.62357 0.0446353 
-86.5362 38.7374 -34.2283 1.75817 -6.40618 1.96163 -6.8704 1.69646 -7.77656 0.391577 24.4134 4.59133 2.85972 -19.1941 0.483633 -3.15698 -23.4033 -1.17087 -1.78476 33.0124 -13.9078 -2.34791 -4.19855 -0.0860762 -1.1216 3.29128 -4.04263 -2.33052 4.76662 -5.01332 6.26702 0.0157355 1.42301 15.4848 -18.2927 5.05277 -6.51195 -15.0583 -32.6751 7.23013 2.49892 -0.157903 -2.87478 0.191973 -5.04423 -16.9387 5.21441 -1.44508 10.5625 -16.74 38.6039 -2.22888 0.0478655 0.000931134 2.44968 -5.66881 -1.24034 1.43462 -5.46312 0.117062 
-86.6613 38.4716 -32.85 2.19972 -6.27711 2.97956 -6.7329 3.27141 -7.49223 0.493003 25.4698 3.56066 2.75327 -21.9028 0.532857 -4.61255 -22.3797 -1.08964 -1.5609 20.7967 -12.7815 0.153791 -4.86936 0.00653902 -1.54235 3.30589 -4.34921 -2.35456 4.77558 -5.2987 6.64329 0.0193272 1.34759 14.863 -19.2141 4.59415 -6.57052 -17.1724 -32.3185 7.51662 2.21231 -0.145343 -2.9351 0.190071 -5.29671 -16.3678 5.44651 -1.6475 10.1186 -16.0035 38.7686 -2.01362 0.0711962 0.0012512 2.63905 -5.83782 -1.32121 1.30051 -5.31093 0.146625 
-86.8283 38.1677 -31.3223 2.76293 -6.25642 3.80921 -6.43014 5.56593 -7.02063 0.364187 25.7635 2.52782 2.74741 -24.5018 0.596674 -5.64201 -22.1909 -0.683267 -2.20207 14.2551 -10.7287 3.46586 -7.55732 0.228975 -2.10829 3.26305 -4.55743 -2.38853 4.74874 -5.47495 6.97216 0.023209 1.34836 14.1434 -19.3638 4.14687 -6.69102 -19.1558 -32.624 7.93099 1.86682 -0.129422 -2.98677 0.189146 -5.485 -15.8174 5.50943 -1.95866 9.41825 -14.7172 38.6705 -1.74564 0.144554 0.00220224 2.82739 -6.03373 -1.38427 1.12867 -5.13444 0.179367 
-87.0519 37.9159 -29.7057 2.5866 -6.39705 4.2653 -5.1784 8.91005 -6.30417 0.080034 24.4937 1.29632 2.92692 -26.509 0.689583 -5.023 -23.01 0.192123 -3.33662 15.6198 -10.2126 4.82863 -10.4346 0.441167 -2.05193 3.28728 -4.67206 -2.30348 4.75553 -5.52467 7.2557 0.0279828 1.4213 13.2924 -18.8725 3.76896 -6.80711 -20.5128 -33.4183 8.47388 1.49963 -0.111104 -3.0684 0.191118 -5.59976 -15.2667 5.31349 -2.33042 8.5856 -13.1541 38.3216 -1.38722 0.246349 0.0029824 2.97858 -6.17662 -1.38967 0.930359 -4.85434 0.253022 
-87.3369 37.7586 -28.0404 1.62817 -6.65452 4.31648 -3.09014 13.7146 -5.45249 -0.0427132 20.5793 -0.304479 3.12512 -27.2717 0.758293 -2.98353 -23.3831 1.44423 -3.89911 19.4253 -11.6843 2.57912 -8.27125 0.186517 -1.38903 3.35157 -4.71332 -1.99103 4.75174 -5.43466 7.50646 0.0339182 1.55035 12.2966 -17.8345 3.52743 -6.83926 -20.7763 -34.4002 9.07569 1.18796 -0.0942871 -3.21796 0.197559 -5.65594 -14.7684 4.90271 -2.70026 7.7783 -11.6168 37.8928 -0.956083 0.303466 0.002532 3.05079 -6.19976 -1.31225 0.730885 -4.40075 0.383866 
-87.6715 37.7445 -26.3128 0.245435 -6.9252 3.98399 -0.740214 19.3679 -4.54001 0.0225969 15.0133 -1.48377 2.90624 -25.7087 0.663315 -0.784663 -22.1482 2.68702 -3.48078 20.2261 -13.5626 2.1998 0.0675524 -0.00129695 -0.494005 3.31949 -4.62974 -1.43024 4.62937 -5.21999 7.7477 0.0409877 1.70892 11.1675 -16.2774 3.4806 -6.7294 -19.6643 -35.3226 9.54972 1.01446 -0.0847405 -3.45648 0.209068 -5.67632 -14.373 4.42691 -2.99936 7.14503 -10.3909 37.6251 -0.539517 0.204963 0.000965009 3.02021 -6.06846 -1.15691 0.55542 -3.77731 0.56107 
-88.0322 37.9159 -24.4871 -0.993631 -7.1307 3.34205 1.00888 20.9367 -3.41406 0.144012 17.4819 -1.70708 2.12446 -22.872 0.429805 1.30202 -19.4593 3.9505 -2.9483 19.2272 -13.7779 2.06046 5.28875 -0.0951743 0.113335 3.08392 -4.31114 -0.697703 4.31078 -4.92432 8.00616 0.0490105 1.86763 9.96488 -14.2729 3.66477 -6.46205 -17.2152 -36.0842 9.61599 1.02002 -0.0857987 -3.7775 0.225019 -5.67321 -14.1014 4.01162 -3.164 6.79023 -9.6991 37.7166 -0.263701 -0.171001 -0.000393513 2.89837 -5.79577 -0.958972 0.414151 -3.07737 0.752035 
-88.3937 38.1851 -22.6249 -1.98578 -7.25222 2.61705 2.32685 19.013 -1.99057 0.519285 26.0657 -1.80423 0.518921 -17.8827 0.0816452 3.1719 -16.6884 5.1499 -2.63083 19.2381 -13.5875 2.42505 5.35073 -0.113334 0.449586 2.73021 -3.8421 0.0723248 3.89076 -4.59531 8.30039 0.0578186 2.00674 8.86849 -12.1016 4.08403 -6.06287 -13.8418 -36.6981 9.06179 1.17223 -0.0928962 -4.14981 0.243706 -5.64121 -13.9704 3.58662 -3.15323 6.74638 -9.65951 38.2294 -0.244526 -0.913665 -0.0019497 2.73085 -5.44717 -0.769165 0.295148 -2.43612 0.91593 
-88.7308 38.3852 -20.8322 -2.86042 -7.29927 2.06897 3.39538 14.1496 -0.803179 1.39988 38.2808 -1.68119 -1.82343 -7.88002 -0.125599 4.99515 -15.1826 6.16137 -2.39271 22.0243 -13.9943 2.54115 1.08072 -0.0239703 0.777626 2.44025 -3.41348 0.745816 3.5663 -4.25604 8.63203 0.0674037 2.12565 8.06951 -10.0604 4.68282 -5.60546 -10.2474 -37.2345 7.96769 1.38266 -0.0962981 -4.53563 0.263027 -5.56433 -14.0054 2.96826 -2.97193 6.96524 -10.2598 39.088 -0.548643 -2.02287 -0.00968619 2.57516 -5.1209 -0.631366 0.168235 -1.95013 1.02007 
-89.03 38.5026 -19.1356 -3.46776 -7.34879 1.72676 4.08927 8.56428 -0.095852 3.01499 48.649 -0.110004 -5.45926 6.17178 0.294537 6.34502 -13.6285 6.78304 -2.03299 24.4056 -14.7575 2.52364 -2.82784 0.0623 1.02758 2.29779 -3.026 1.22543 3.43964 -3.88783 8.98575 0.0780131 2.24171 7.60589 -8.15878 5.35814 -5.19526 -7.21113 -37.7407 6.76908 1.57185 -0.0929653 -4.9144 0.281534 -5.42962 -14.1729 2.05843 -2.67807 7.32693 -11.3617 40.1108 -1.16244 -3.36795 -0.0341761 2.47058 -4.90619 -0.563274 -0.00157146 -1.62214 1.05259 
-89.2832 38.5956 -17.5225 -3.67622 -7.48491 1.44571 3.66287 2.95323 0.364265 5.37403 58.1515 1.74923 -4.19722 10.6499 0.391381 7.05799 -11.6806 7.00581 -1.60305 26.0341 -15.275 2.44404 -6.31977 0.134947 1.09303 2.31871 -2.60378 1.46828 3.53052 -3.43841 9.33883 0.0901791 2.38022 7.34644 -6.24591 6.0096 -4.93016 -5.33916 -38.1501 6.0206 1.7145 -0.090169 -5.29414 0.299043 -5.23617 -14.4062 0.829083 -2.36301 7.66962 -12.7402 41.038 -1.97058 -4.70954 -0.0810415 2.41741 -4.84254 -0.548157 -0.234473 -1.37105 1.02632 
-89.4896 38.6809 -15.9978 -3.5185 -7.73187 1.04634 2.40615 -2.44822 0.209939 7.97431 65.3112 2.74086 -1.70534 8.15238 0.121537 7.1772 -9.34902 6.90582 -1.19722 26.879 -15.2322 2.27552 -9.32163 0.185539 0.994238 2.49892 -2.1101 1.48068 3.82397 -2.85293 9.67407 0.104576 2.56198 7.53423 -4.29984 6.58953 -4.88322 -4.88476 -38.3533 6.04573 1.80732 -0.0954485 -5.70158 0.316188 -4.99392 -14.6333 -0.724945 -2.11048 7.84314 -14.1554 41.6129 -2.77382 -5.79525 -0.140428 2.3786 -4.90539 -0.542541 -0.522214 -1.09588 0.97273 
-89.6521 38.755 -14.5511 -2.97641 -8.07296 0.379953 0.56796 -7.50412 -0.493332 9.19235 69.4286 2.68209 1.17458 2.63951 -0.0270611 6.73495 -6.89539 6.55153 -0.878252 27.2269 -14.522 1.97432 -11.8586 0.205066 0.679292 2.80631 -1.51005 1.30343 4.26721 -2.10869 9.98573 0.121658 2.79386 7.55884 -2.19066 7.03963 -5.08301 -5.6985 -38.3554 6.76197 1.82178 -0.107636 -6.16273 0.333466 -4.71528 -14.8126 -2.54617 -1.96455 7.76601 -15.4381 41.6972 -3.3608 -6.46341 -0.189818 2.30069 -5.02522 -0.497274 -0.832903 -0.742189 0.928834 
-89.7766 38.8021 -13.1686 -2.09131 -8.46807 -0.611413 -1.48639 -12.1003 -1.52506 7.81442 70.1613 3.4804 2.76174 -1.68975 0.0407351 5.84891 -4.55798 6.06656 -0.759499 27.5303 -13.166 1.62771 -14.1596 0.202173 0.130524 3.1946 -0.791266 0.999165 4.7932 -1.2343 10.274 0.141202 3.06505 7.87999 -0.104989 7.39042 -5.47872 -7.31253 -38.2962 7.78334 1.7242 -0.117301 -6.6885 0.350576 -4.40768 -14.9245 -4.53374 -1.92048 7.44742 -16.5468 41.3102 -3.59177 -6.68208 -0.20975 2.13961 -5.12681 -0.380116 -1.13152 -0.32434 0.923635 
